<svg width="74" height="75" viewBox="0 0 74 75" fill="none" xmlns="http://www.w3.org/2000/svg">
<path d="M59.0241 2.33423H19.9924C15.4319 2.33629 11.735 6.03268 11.7334 10.5932V14.161H7.85174C6.93913 14.161 6.19995 14.9007 6.19995 15.8128C6.19995 16.7249 6.93913 17.4646 7.85174 17.4646H11.7164V28.3003H7.85174C6.93913 28.3003 6.19995 29.0395 6.19995 29.9521C6.19995 30.8642 6.93913 31.6039 7.85174 31.6039H11.7164V42.4396H7.85174C6.93913 42.4396 6.19995 43.1793 6.19995 44.0914C6.19995 45.004 6.93913 45.7432 7.85174 45.7432H11.7164V56.5789H7.85174C6.93913 56.5789 6.19995 57.3186 6.19995 58.2307C6.19995 59.1428 6.93913 59.8824 7.85174 59.8824H11.7164V63.4503C11.7185 68.0108 15.4148 71.7072 19.9753 71.7092H59.007C63.5675 71.7072 67.2649 68.0108 67.2659 63.4503V10.5932C67.2727 6.03578 63.5814 2.33733 59.0241 2.33423ZM63.9794 63.4503C63.9711 66.1835 61.7572 68.3979 59.0241 68.4057H19.9924C17.2592 68.3979 15.0447 66.1835 15.037 63.4503V59.8824H18.9017C19.8143 59.8824 20.5535 59.1428 20.5535 58.2307C20.5535 57.3186 19.8143 56.5789 18.9017 56.5789H15.037V45.7432H18.9017C19.8143 45.7432 20.5535 45.004 20.5535 44.0914C20.5535 43.1793 19.8143 42.4396 18.9017 42.4396H15.037V31.6039H18.9017C19.8143 31.6039 20.5535 30.8642 20.5535 29.9521C20.5535 29.0395 19.8143 28.3003 18.9017 28.3003H15.037V17.4646H18.9017C19.8143 17.4646 20.5535 16.7249 20.5535 15.8128C20.5535 14.9007 19.8143 14.161 18.9017 14.161H15.037V10.5932C15.0447 7.85997 17.2592 5.64554 19.9924 5.6378H59.0241C61.7572 5.64554 63.9711 7.85997 63.9794 10.5932V63.4503Z" fill="white"/>
<path d="M39.4999 36.5428C43.9241 36.5428 47.5111 32.9564 47.5111 28.5317C47.5111 24.1069 43.9241 20.5205 39.4999 20.5205C35.0752 20.5205 31.4888 24.1069 31.4888 28.5317C31.4929 32.9543 35.0768 36.5387 39.4999 36.5428ZM39.4999 23.8076C42.0994 23.8076 44.2075 25.9157 44.2075 28.5152C44.2075 31.1146 42.0994 33.2227 39.4999 33.2227C36.8999 33.2227 34.7923 31.1146 34.7923 28.5152C34.797 25.9177 36.9015 23.8122 39.4999 23.8076Z" fill="white"/>
<path d="M39.4999 39.2021C32.6285 39.2021 27.2432 44.7687 27.2432 51.8879C27.2457 52.7989 27.9839 53.5371 28.8949 53.5397H50.1044C51.0155 53.5371 51.7536 52.7989 51.7562 51.8879C51.7562 44.7687 46.3708 39.2021 39.4999 39.2021ZM30.6789 50.2361C31.3897 45.7267 34.941 42.5057 39.4999 42.5057C44.0583 42.5057 47.6267 45.7267 48.3205 50.2361H30.6789Z" fill="white"/>
</svg>
