<svg width="61" height="60" viewBox="0 0 61 60" fill="none" xmlns="http://www.w3.org/2000/svg">
<path d="M57.4983 30.2687V21.9204C57.4983 19.0896 55.3026 16.7874 52.5283 16.5641L44.7755 3.02254C44.057 1.77013 42.8969 0.874998 41.5087 0.503301C40.127 0.134135 38.6823 0.32802 37.4457 1.04775L10.8684 16.5206H6.20058C3.22257 16.5206 0.800781 18.9422 0.800781 21.9204V54.3189C0.800781 57.2969 3.22245 59.7187 6.20058 59.7187H52.0985C55.0766 59.7187 57.4983 57.297 57.4983 54.3189V45.9706C59.0663 45.4115 60.1982 43.9271 60.1982 42.1695V34.0698C60.1982 32.3122 59.0663 30.8278 57.4983 30.2687ZM38.8048 3.38108C39.4164 3.02381 40.1297 2.92889 40.8099 3.11088C41.4994 3.2954 42.0742 3.741 42.4315 4.36455L45.062 8.95919C43.8622 9.4925 42.5817 9.77093 41.2991 9.77093C38.3998 9.77093 35.7431 8.45512 33.9598 6.20165L38.8048 3.38108ZM31.6147 7.56694C33.9046 10.654 37.4299 12.4709 41.2991 12.4709C43.0506 12.4709 44.7871 12.0579 46.4007 11.2975L49.3911 16.5207H16.2344L31.6147 7.56694ZM54.7984 54.3189C54.7984 55.8072 53.5869 57.0187 52.0985 57.0187H6.20058C4.71227 57.0187 3.50074 55.8072 3.50074 54.3189V21.9204C3.50074 20.4321 4.71227 19.2205 6.20058 19.2205H52.0985C53.5869 19.2205 54.7984 20.4321 54.7984 21.9204V30.02H46.6987C42.2323 30.02 38.5991 33.6532 38.5991 38.1196C38.5991 42.5861 42.2323 46.2193 46.6987 46.2193H54.7984V54.3189ZM57.4983 42.1695C57.4983 42.9142 56.8933 43.5194 56.1484 43.5194H46.6987C43.7207 43.5194 41.2989 41.0978 41.2989 38.1196C41.2989 35.1416 43.7206 32.7198 46.6987 32.7198H56.1484C56.8931 32.7198 57.4983 33.3249 57.4983 34.0698V42.1695Z" fill="#FFBF1A"/>
<path d="M46.6986 35.4197C45.2103 35.4197 43.9988 36.6312 43.9988 38.1195C43.9988 39.6078 45.2103 40.8193 46.6986 40.8193C48.1869 40.8193 49.3984 39.6078 49.3984 38.1195C49.3986 36.6312 48.1871 35.4197 46.6986 35.4197Z" fill="#FFBF1A"/>
</svg>
