<svg width="88" height="56" viewBox="0 0 88 56" fill="none" xmlns="http://www.w3.org/2000/svg">
<path d="M75.8487 24.7173C78.3874 22.9334 80.0684 19.9658 80.0684 16.6209C80.0684 11.149 75.6428 6.7234 70.1709 6.7234C64.699 6.7234 60.2734 11.149 60.2734 16.6209C60.2734 19.9658 61.9372 22.9334 64.4931 24.7173C62.3146 25.4721 60.3248 26.6385 58.6438 28.148C56.3281 26.1754 53.6007 24.6659 50.616 23.7739C54.2354 21.5783 56.6712 17.5815 56.6712 13.0359C56.6712 6.10587 51.062 0.496704 44.132 0.496704C37.202 0.496704 31.5929 6.12303 31.5929 13.0359C31.5929 17.5815 34.0115 21.5783 37.648 23.7739C34.6976 24.6659 32.0045 26.1582 29.706 28.0966C28.025 26.6214 26.0695 25.4721 23.9253 24.7345C26.464 22.9505 28.145 19.983 28.145 16.6381C28.145 11.1661 23.7194 6.74055 18.2475 6.74055C12.7756 6.74055 8.34998 11.1661 8.34998 16.6381C8.34998 19.983 10.0139 22.9505 12.5697 24.7345C5.75982 27.0845 0.871094 33.5513 0.871094 41.1503V42.2824C0.871094 42.3167 0.905401 42.3511 0.939707 42.3511H21.9183C21.7983 43.2945 21.7296 44.2722 21.7296 45.25V46.4164C21.7296 51.4595 25.8122 55.542 30.8553 55.542H57.4431C62.4862 55.542 66.5687 51.4595 66.5687 46.4164V45.25C66.5687 44.2722 66.5001 43.2945 66.38 42.3511H87.4958C87.5301 42.3511 87.5645 42.3167 87.5645 42.2824V41.1503C87.5301 33.5342 82.6586 27.0674 75.8487 24.7173ZM63.0179 16.6038C63.0179 12.6585 66.2256 9.45079 70.1709 9.45079C74.1162 9.45079 77.3239 12.6585 77.3239 16.6038C77.3239 20.4976 74.1848 23.671 70.3081 23.7567C70.2567 23.7567 70.2224 23.7567 70.1709 23.7567C70.1194 23.7567 70.0851 23.7567 70.0337 23.7567C66.1398 23.6881 63.0179 20.5147 63.0179 16.6038ZM34.3031 13.0359C34.3031 7.63253 38.6944 3.24125 44.0977 3.24125C49.501 3.24125 53.8923 7.63253 53.8923 13.0359C53.8923 18.2505 49.7926 22.5217 44.6638 22.8133C44.4751 22.8133 44.2864 22.8133 44.0977 22.8133C43.909 22.8133 43.7203 22.8133 43.5316 22.8133C38.4028 22.5217 34.3031 18.2505 34.3031 13.0359ZM11.0431 16.6038C11.0431 12.6585 14.2508 9.45079 18.196 9.45079C22.1413 9.45079 25.349 12.6585 25.349 16.6038C25.349 20.4976 22.2099 23.671 18.3333 23.7567C18.2818 23.7567 18.2475 23.7567 18.196 23.7567C18.1446 23.7567 18.1103 23.7567 18.0588 23.7567C14.1821 23.6881 11.0431 20.5147 11.0431 16.6038ZM22.3986 39.5894H3.64995C4.42185 32.282 10.5971 26.5528 18.0931 26.5013C18.1274 26.5013 18.1617 26.5013 18.196 26.5013C18.2303 26.5013 18.2647 26.5013 18.299 26.5013C21.8669 26.5184 25.126 27.8393 27.6476 29.9834C25.1775 32.6594 23.3421 35.9528 22.3986 39.5894ZM63.7898 46.4164C63.7898 49.9329 60.9252 52.7975 57.4088 52.7975H30.821C27.3045 52.7975 24.4399 49.9329 24.4399 46.4164V45.25C24.4399 34.5977 32.948 25.8838 43.5316 25.575C43.7203 25.5922 43.9262 25.5922 44.1149 25.5922C44.3035 25.5922 44.5094 25.5922 44.6981 25.575C55.2817 25.8838 63.7898 34.5977 63.7898 45.25V46.4164ZM65.8311 39.5894C64.8876 35.97 63.0865 32.728 60.6336 30.052C63.1723 27.8564 66.4658 26.5356 70.068 26.5013C70.1023 26.5013 70.1366 26.5013 70.1709 26.5013C70.2052 26.5013 70.2395 26.5013 70.2738 26.5013C77.7699 26.5528 83.9451 32.282 84.717 39.5894H65.8311Z" fill="#FFBF1A"/>
</svg>
