<svg width="74" height="74" viewBox="0 0 74 74" fill="none" xmlns="http://www.w3.org/2000/svg">
<g clip-path="url(#clip0)">
<path d="M64.5784 71.3935L54.8227 50.7572C54.628 50.3454 54.2906 50.0299 53.8861 49.8578L49.0327 47.6972L57.4423 33.6028C57.4624 33.569 57.4813 33.5347 57.4994 33.4997C59.1713 30.2364 60.0191 26.71 60.0191 23.0191C60.0191 16.8101 57.5844 10.9893 53.1633 6.62893C48.743 2.26957 42.8868 -0.0849842 36.6742 0.00231265C30.6403 0.0859962 24.959 2.50964 20.6767 6.82708C16.3948 11.1442 14.017 16.845 13.9812 22.8796C13.9592 26.5673 14.8306 30.2396 16.5005 33.4996C16.5184 33.5344 16.5373 33.5688 16.5574 33.6026L24.9668 47.6969L20.0854 49.8694C19.6861 50.047 19.3638 50.3619 19.1771 50.7571L9.42164 71.3935C9.09514 72.0837 9.23288 72.9043 9.76678 73.4502C10.3005 73.9961 11.1174 74.1525 11.8151 73.842L24.0363 68.401L36.2576 73.842C36.7304 74.0523 37.2702 74.0523 37.743 73.842L49.9642 68.401L62.1855 73.842C62.4243 73.9483 62.6771 74 62.9277 74C63.4091 74 63.8827 73.8095 64.2338 73.4503C64.7673 72.9043 64.9049 72.084 64.5784 71.3935ZM19.7247 31.7833C18.3184 29.0181 17.6147 26.0302 17.6333 22.9014C17.6952 12.4332 26.2598 3.79872 36.725 3.65375C41.9522 3.58351 46.8802 5.56142 50.599 9.22919C54.319 12.8978 56.3674 17.7951 56.3674 23.0192C56.3674 26.1062 55.6637 29.0544 54.2756 31.7833L38.5682 58.1094C38.0887 58.913 37.312 58.9997 37.0002 58.9997C36.6883 58.9997 35.9116 58.913 35.4322 58.1094L19.7247 31.7833ZM50.7066 64.7342C50.2338 64.5239 49.694 64.5239 49.2212 64.7342L36.9999 70.1753L24.7787 64.7342C24.3059 64.5239 23.7661 64.5239 23.2933 64.7342L14.827 68.5036L22.1891 52.9305L26.8514 50.8556L32.2956 59.9803C33.2934 61.6528 35.0521 62.6514 36.9996 62.6514C38.9472 62.6514 40.7059 61.6528 41.7037 59.9805L47.1479 50.8558L51.8106 52.9314L59.1723 68.5038L50.7066 64.7342Z" fill="white"/>
<path d="M37.0005 14.6854C32.4053 14.6854 28.667 18.4237 28.667 23.0187C28.667 27.6138 32.4053 31.3521 37.0005 31.3521C41.5956 31.3523 45.3339 27.6138 45.3339 23.0187C45.3339 18.4237 41.5956 14.6854 37.0005 14.6854ZM37.0005 27.7004C34.419 27.7005 32.3187 25.6005 32.3187 23.0187C32.3187 20.4373 34.4189 18.3371 37.0005 18.3371C39.582 18.3371 41.6822 20.4373 41.6822 23.0187C41.6822 25.6002 39.582 27.7004 37.0005 27.7004Z" fill="white"/>
</g>
<defs>
<clipPath id="clip0">
<rect width="74" height="74" fill="white"/>
</clipPath>
</defs>
</svg>
