<svg width="65" height="57" viewBox="0 0 65 57" fill="none" xmlns="http://www.w3.org/2000/svg">
<path d="M34.759 40.9228C33.9781 41.7038 33.9781 42.9679 34.759 43.7468C35.54 44.5277 36.804 44.5277 37.583 43.7468L51.3612 29.9666C51.7767 29.551 51.9544 28.9979 51.9263 28.4546C51.9544 27.9094 51.7766 27.3582 51.3612 26.9428L37.583 13.1646C36.804 12.3837 35.5379 12.3837 34.759 13.1646C33.9781 13.9455 33.9781 15.2096 34.759 15.9885L45.2299 26.4594H2.1197C1.01728 26.4595 0.122559 27.3542 0.122559 28.4567C0.122559 29.5591 1.01728 30.4538 2.1197 30.4538H45.2299L34.759 40.9228ZM56.0425 0.496704H16.0997C11.688 0.496704 8.11112 4.07359 8.11112 8.48526V16.4738H12.1054V8.48526C12.1054 6.28042 13.8929 4.49098 16.0997 4.49098H56.0425C58.2493 4.49098 60.0368 6.28042 60.0368 8.48526V48.4281C60.0368 50.6329 58.2493 52.4223 56.0425 52.4223H16.0997C13.8929 52.4223 12.1054 50.6349 12.1054 48.4281V40.4395H8.11112V48.4281C8.11112 52.8397 11.688 56.4166 16.0997 56.4166H56.0425C60.4542 56.4166 64.031 52.8397 64.031 48.4281V8.48526C64.031 4.07359 60.4542 0.496704 56.0425 0.496704Z" fill="#FFBF1A"/>
</svg>
