<svg width="52" height="69" viewBox="0 0 52 69" fill="none" xmlns="http://www.w3.org/2000/svg">
<path d="M44.4228 5.14331H33.4633C32.2215 2.32925 29.4351 0.513062 26.3589 0.513062C23.2822 0.513062 20.4959 2.32925 19.254 5.14331H8.29399C4.15974 5.14811 0.809726 8.49866 0.804932 12.6329V61.2172C0.809726 65.3515 4.15974 68.702 8.29399 68.7068H44.4228C48.557 68.702 51.9076 65.3515 51.9124 61.2172V12.6329C51.9076 8.49866 48.557 5.14811 44.4228 5.14331ZM20.4873 8.553C21.2875 8.553 21.9801 7.99626 22.1522 7.21363C22.571 5.3074 24.3403 3.92275 26.3589 3.92275C28.3776 3.92275 30.1463 5.3074 30.5651 7.21363C30.7366 7.99626 31.4292 8.553 32.2305 8.553H35.6109V10.049C35.6082 12.301 33.7835 14.1257 31.5315 14.1284H21.1858C18.9333 14.1257 17.1086 12.301 17.1059 10.049V8.553H20.4873ZM48.5027 61.2172C48.5006 63.4698 46.6753 65.295 44.4228 65.2971H8.29399C6.042 65.295 4.21728 63.4698 4.21462 61.2172V12.6329C4.21728 10.3804 6.042 8.55567 8.29399 8.553H13.6962V10.049C13.701 14.1833 17.0515 17.5333 21.1858 17.5381H31.5315C35.6658 17.5333 39.0158 14.1833 39.0206 10.049V8.553H44.4228C46.6753 8.55567 48.5 10.3804 48.5027 12.6329V61.2172Z" fill="#FFBF1A"/>
<path d="M34.7468 27.4431L23.5545 38.3711L17.8709 32.8234C17.2023 32.1692 16.1315 32.1772 15.4714 32.84C14.8118 33.5032 14.8092 34.5741 15.466 35.2401L15.489 35.2624L22.3627 41.9742C23.0254 42.621 24.083 42.621 24.7452 41.9742L37.1282 29.8836C37.7979 29.2252 37.8086 28.1495 37.1533 27.4777C36.4969 26.8059 35.4218 26.791 34.7468 27.4441V27.4431Z" fill="#FFBF1A"/>
</svg>
