<svg width="23" height="19" viewBox="0 0 23 19" fill="none" xmlns="http://www.w3.org/2000/svg">
<path d="M0.221954 10.4633C0.110977 10.2262 0 9.98908 0 9.75195C0 9.51482 0.110977 9.27769 0.221954 9.04056L1.4427 7.73635C1.77563 7.38065 2.33052 7.38065 2.66345 7.73635L2.77443 7.85491L7.7684 13.546C7.99035 13.7832 8.2123 13.7832 8.43426 13.546L20.1978 0.266771H20.3088C20.6417 -0.0889236 21.1966 -0.0889236 21.5296 0.266771L22.7503 1.57098C23.0832 1.92668 23.0832 2.5195 22.7503 2.8752L8.65621 18.7629C8.43426 18.8814 8.2123 19 7.99035 19C7.7684 19 7.54644 18.8814 7.32449 18.7629L0.443908 10.7005L0.221954 10.4633Z" fill="white"/>
</svg>
